<?xml version="1.0" standalone="no"?>
<!DOCTYPE svg PUBLIC "-//W3C//DTD SVG 20010904//EN"
 "http://www.w3.org/TR/2001/REC-SVG-20010904/DTD/svg10.dtd">
<svg version="1.0" xmlns="http://www.w3.org/2000/svg"
 width="1080.000000pt" height="1080.000000pt" viewBox="0 0 1080.000000 1080.000000"
 preserveAspectRatio="xMidYMid meet">
<metadata>
Created by potrace 1.14, written by Peter Selinger 2001-2017
</metadata>
<g transform="translate(0.000000,1080.000000) scale(0.100000,-0.100000)"
fill="#000000" stroke="none">
<path d="M4020 9563 c-79 -8 -210 -36 -290 -60 -102 -31 -311 -136 -374 -188
-43 -35 -48 -37 -98 -31 -130 14 -308 18 -378 7 -208 -32 -504 -171 -715 -334
-216 -168 -458 -454 -598 -707 -172 -312 -253 -718 -202 -1008 17 -98 44 -203
56 -216 5 -6 9 -16 9 -24 0 -49 140 -293 220 -385 20 -23 45 -66 55 -95 17
-45 18 -62 8 -127 -6 -41 -19 -91 -30 -112 -11 -21 -47 -90 -81 -153 -96 -183
-132 -331 -132 -542 0 -214 28 -343 111 -512 24 -48 65 -115 93 -148 61 -77
152 -215 173 -265 29 -69 62 -228 66 -318 5 -108 -9 -355 -22 -399 -6 -17 -26
-80 -45 -141 -72 -228 -117 -403 -137 -535 -17 -110 -29 -327 -23 -430 14
-273 58 -475 196 -905 l61 -190 -1 -156 c-1 -134 -6 -181 -36 -335 -54 -273
-55 -280 -56 -424 -1 -308 86 -552 273 -764 l59 -66 190 2 191 3 37 70 c68
130 124 278 164 438 29 113 33 121 55 112 9 -4 55 -15 102 -25 302 -65 697
-54 1010 28 157 42 198 56 337 115 105 44 141 64 137 74 -3 8 -5 42 -5 75 0
60 0 60 -26 54 -15 -4 -59 -22 -98 -40 -154 -73 -464 -168 -621 -191 -203 -30
-561 -15 -698 29 -23 8 -64 20 -90 27 -27 8 -52 18 -56 24 -4 5 -15 60 -25
120 -10 61 -33 160 -51 220 -33 107 -184 521 -263 720 -48 121 -150 409 -186
524 -76 241 -116 473 -123 701 -6 198 6 337 42 475 50 192 87 262 265 494 14
19 22 20 130 11 179 -14 327 -60 445 -137 100 -66 165 -111 222 -155 75 -58
188 -125 297 -178 93 -45 292 -114 309 -107 7 2 32 53 56 113 24 60 46 112 50
116 9 10 228 -251 316 -376 22 -31 57 -80 78 -109 50 -67 122 -216 143 -292
12 -41 18 -115 21 -238 5 -181 -1 -253 -47 -552 -29 -189 -59 -718 -41 -729 4
-3 38 -3 75 1 l66 6 0 153 c0 213 17 433 47 604 35 202 38 238 37 475 0 183
-3 220 -22 288 -51 184 -165 376 -383 645 -356 440 -432 550 -486 703 -24 67
-26 88 -27 229 0 168 -6 141 74 345 50 128 51 119 -9 113 -64 -6 -99 -37 -142
-123 -51 -105 -72 -204 -72 -345 1 -188 46 -332 158 -500 25 -37 45 -72 45
-77 0 -15 -139 -5 -265 19 -148 28 -254 56 -415 113 -182 63 -329 103 -451
120 -56 7 -104 16 -107 19 -2 3 20 49 50 103 104 187 154 318 213 558 60 247
70 349 70 715 -1 279 -4 345 -22 465 -12 77 -20 141 -18 143 1 2 36 6 76 9 77
6 116 22 157 66 22 23 22 24 3 41 -18 16 -28 17 -102 7 -46 -6 -90 -18 -100
-27 -12 -11 -28 -13 -60 -9 -24 4 -60 8 -79 9 -47 3 -90 27 -130 72 -55 64
-75 118 -75 210 0 70 4 89 29 139 39 76 107 144 181 181 53 26 70 29 150 29
168 -1 283 -75 367 -235 10 -19 18 -43 18 -55 1 -50 72 73 109 187 17 55 21
92 21 207 0 138 0 141 23 145 12 2 65 12 117 21 163 29 391 100 508 159 110
55 301 188 387 268 91 85 203 216 276 324 59 88 139 237 139 261 0 14 233 489
300 612 17 29 30 64 30 76 0 13 -19 56 -41 97 -159 280 -435 483 -754 552
-139 31 -282 41 -395 29z m-429 -395 c55 -23 108 -76 141 -138 21 -40 23 -59
24 -181 1 -75 5 -142 9 -149 4 -7 7 -44 6 -83 l-2 -70 56 -54 57 -53 -32 0
c-55 0 -174 21 -195 35 -11 7 -39 31 -62 54 -40 40 -66 50 -77 32 -8 -12 14
-112 29 -131 24 -31 55 -122 61 -177 9 -84 -8 -134 -62 -185 -62 -59 -119 -87
-192 -94 l-62 -7 -58 62 c-44 47 -65 63 -92 66 -32 5 -39 1 -78 -44 l-42 -49
61 -59 c113 -107 142 -148 151 -215 9 -66 -6 -112 -40 -122 -13 -4 -25 -27
-37 -69 -22 -74 -59 -131 -111 -173 -54 -43 -105 -57 -180 -51 -88 7 -140 38
-179 107 -27 49 -35 55 -70 61 -22 4 -45 3 -52 -3 -8 -6 -28 11 -67 58 -58 70
-86 138 -86 208 0 80 77 216 171 300 67 60 91 72 171 86 91 16 133 3 200 -62
49 -48 53 -50 77 -37 13 8 33 27 45 42 l21 29 -25 19 c-83 64 -102 84 -130
144 -60 125 -35 240 73 342 28 27 60 54 70 59 17 10 18 16 8 69 -21 110 -7
190 48 278 27 44 108 120 152 143 88 46 209 51 300 12z m-1295 -1643 c67 -33
156 -115 225 -206 72 -96 83 -125 75 -195 -8 -71 -43 -123 -127 -189 -57 -45
-68 -50 -126 -53 -61 -4 -63 -5 -106 -56 -23 -28 -51 -64 -61 -81 -11 -16 -25
-37 -33 -45 -40 -44 -63 -93 -63 -136 0 -51 -14 -84 -35 -84 -7 0 -34 -16 -59
-35 -26 -19 -48 -35 -51 -35 -3 0 -5 33 -5 74 0 84 5 78 -94 121 -38 16 -68
35 -68 40 0 6 46 25 101 44 l101 33 54 73 c30 40 64 88 75 106 l20 34 -59 23
c-110 43 -170 141 -170 279 0 87 34 158 106 221 104 90 207 114 300 67z"/>
<path d="M7501 9474 c-192 -26 -309 -61 -741 -219 -606 -223 -709 -259 -930
-324 -229 -68 -320 -119 -446 -247 -170 -171 -256 -382 -258 -629 -1 -173 34
-274 132 -372 77 -76 145 -112 262 -137 22 -5 29 -19 62 -123 48 -150 55 -187
63 -298 7 -96 -8 -267 -30 -350 -35 -131 -97 -254 -167 -331 -60 -65 -166
-143 -233 -172 -48 -20 -50 -23 -49 -59 1 -68 93 -175 184 -216 60 -27 142
-46 230 -54 l85 -8 16 -45 c9 -25 18 -52 22 -60 3 -8 12 -35 20 -60 20 -61 31
-86 97 -225 75 -158 152 -272 113 -169 -5 13 14 20 147 54 95 25 171 60 206
95 41 41 29 165 -16 165 -11 0 -42 -11 -68 -24 -61 -30 -246 -89 -269 -84 -34
6 -115 243 -144 423 -6 39 -15 77 -19 85 -6 11 -48 21 -147 34 -138 19 -238
46 -238 64 0 5 28 31 62 56 176 133 297 336 344 578 18 93 15 332 -6 473 -17
114 -61 271 -85 300 -6 7 -13 36 -17 64 -5 47 6 91 35 137 60 95 227 304 249
311 7 3 21 -13 31 -34 28 -54 133 -186 216 -271 229 -236 490 -372 841 -438
183 -34 181 -33 190 -86 11 -66 41 -152 77 -221 35 -67 198 -244 214 -234 7 4
7 29 0 72 -19 132 26 257 134 366 90 92 132 111 251 117 113 5 179 -7 262 -51
67 -35 151 -122 185 -190 34 -69 55 -180 48 -257 -18 -193 -116 -333 -309
-439 l-78 -43 6 -71 c9 -103 35 -314 45 -367 20 -100 101 -524 125 -655 32
-174 74 -363 88 -392 11 -26 35 -24 100 9 42 21 41 5 11 173 -24 137 -43 267
-50 350 -4 44 -10 87 -15 96 -6 12 30 54 157 180 225 223 363 381 471 540 171
253 279 465 359 705 97 291 118 423 119 749 0 264 -11 355 -66 563 -63 241
-189 487 -337 660 -64 76 -235 228 -318 284 -194 130 -423 216 -679 253 -126
18 -404 18 -544 -1z"/>
<path d="M6053 7309 c-38 -24 -50 -62 -28 -95 29 -44 55 -52 225 -69 90 -9
171 -20 180 -25 28 -14 157 -33 184 -26 39 10 66 41 66 77 0 62 -23 78 -145
98 -33 6 -87 15 -120 21 -49 8 -306 40 -325 40 -3 0 -19 -9 -37 -21z"/>
<path d="M4867 7155 c-54 -8 -161 -25 -237 -39 -77 -14 -151 -26 -164 -26 -29
0 -76 -52 -76 -84 0 -24 19 -45 58 -65 18 -10 47 -8 140 8 64 11 185 27 267
35 88 10 163 23 181 32 59 30 71 91 24 125 -36 26 -82 29 -193 14z"/>
<path d="M6178 6970 c-53 -28 -83 -82 -82 -150 0 -98 63 -156 160 -148 123 10
184 128 123 237 -42 75 -126 100 -201 61z"/>
<path d="M4726 6830 c-43 -13 -83 -57 -101 -111 -47 -141 100 -260 229 -186
82 46 107 128 66 212 -19 39 -32 52 -74 71 -54 25 -74 27 -120 14z"/>
<path d="M4646 5688 c-33 -106 12 -184 125 -221 69 -21 89 -9 119 70 41 111
42 108 -42 122 -40 7 -92 19 -116 27 -53 17 -81 18 -86 2z"/>
<path d="M7040 4995 c0 -42 5 -53 45 -97 25 -28 45 -55 45 -61 0 -6 6 -18 14
-26 8 -9 21 -36 29 -61 51 -148 81 -210 102 -210 14 0 115 30 115 34 0 7 -53
131 -93 218 -77 166 -133 227 -221 243 l-36 7 0 -47z"/>
<path d="M8538 4870 c-9 -6 -47 -19 -85 -31 -37 -11 -75 -23 -83 -26 -8 -4
-22 -8 -30 -9 -8 -2 -130 -41 -270 -89 -252 -85 -302 -101 -450 -145 -41 -12
-106 -33 -145 -47 -38 -13 -140 -47 -225 -75 -85 -28 -158 -55 -161 -61 -4 -5
-14 -46 -23 -91 l-16 -81 27 -20 c16 -11 54 -44 86 -73 l58 -53 62 45 c92 67
116 83 411 275 43 28 83 51 88 51 20 0 -87 -139 -386 -498 -144 -173 -164
-201 -189 -270 -15 -42 -35 -93 -43 -112 -48 -104 -193 -384 -271 -522 -23
-43 -43 -80 -43 -84 0 -3 -8 -18 -19 -32 -10 -15 -44 -76 -76 -137 -71 -135
-134 -245 -141 -245 -5 0 1 30 26 120 10 36 35 135 55 220 20 85 54 229 76
320 22 91 47 194 55 230 8 36 24 101 35 144 19 71 20 86 9 138 -23 105 -31
105 -83 -3 -136 -278 -348 -963 -436 -1404 -68 -345 -87 -505 -90 -772 -3
-214 -6 -206 64 -174 154 70 346 218 464 356 128 151 282 386 345 530 15 33
33 74 41 90 49 107 91 241 145 460 6 28 16 158 20 290 11 327 22 361 148 500
36 38 72 85 81 105 90 196 559 693 840 891 31 21 93 68 138 103 45 35 87 66
94 68 15 5 1 34 -43 91 -32 40 -35 41 -60 27z"/>
<path d="M8653 4611 c-12 -15 -84 -75 -159 -132 -158 -119 -491 -443 -645
-627 -100 -120 -113 -139 -84 -128 32 12 149 26 225 26 132 0 306 -47 396
-108 256 -172 379 -426 404 -829 29 -488 -83 -1001 -326 -1484 -109 -219 -371
-578 -421 -579 -17 0 -22 12 -34 74 l-10 55 57 78 c31 43 74 101 95 128 120
160 266 452 352 705 125 370 173 714 148 1060 -18 245 -68 398 -179 543 -76
100 -174 164 -312 203 -95 28 -301 25 -389 -5 -90 -30 -165 -76 -205 -124 -74
-93 -88 -152 -91 -401 -1 -159 -6 -216 -29 -338 -52 -286 -181 -586 -379 -883
-74 -111 -126 -175 -236 -288 -153 -158 -276 -246 -429 -308 -102 -42 -154
-41 -687 12 -202 20 -272 29 -555 73 -85 13 -203 27 -261 31 l-106 7 -6 -28
c-4 -16 -12 -177 -18 -359 -14 -382 -3 -775 22 -800 8 -8 68 -25 134 -39 66
-13 156 -32 200 -41 44 -9 166 -36 270 -61 l190 -44 1699 2 1699 3 23 67 c49
146 64 342 71 923 5 454 2 616 -27 1250 -24 506 -49 769 -136 1395 -21 153
-98 547 -135 689 -36 141 -90 311 -99 311 -3 0 -16 -13 -27 -29z"/>
<path d="M6866 4194 c-21 -21 -20 -48 4 -114 12 -30 29 -98 40 -150 11 -52 23
-108 28 -125 l8 -30 150 1 c82 1 149 6 149 10 -4 56 -22 135 -38 163 -32 55
-103 136 -145 163 -157 106 -168 110 -196 82z"/>
<path d="M2670 3955 c0 -2 37 -22 83 -43 177 -83 291 -239 357 -486 26 -99 37
-191 50 -411 21 -367 84 -702 213 -1145 46 -160 103 -321 132 -377 39 -77 125
-125 311 -173 87 -22 305 -49 447 -56 l147 -7 0 70 0 70 -117 7 c-178 11 -414
51 -508 86 -75 28 -128 56 -146 77 -40 44 -163 420 -209 633 -6 30 -20 96 -31
145 -59 270 -85 429 -99 605 -18 239 -32 353 -56 465 -30 138 -93 269 -167
349 -56 60 -216 166 -252 166 -11 0 -26 5 -31 10 -9 9 -124 23 -124 15z"/>
</g>
</svg>
